:FULLY-SPECIFIED
:FORCE-ALL-JOINTS-BE-3DOF
:DEGREES
291
root 10.0277 16.829 3.9186 5.23393 1.23016 3.35583
lfemur -3.0721 5.17152 -29.2252
ltibia 19.7459 -0 0
lfoot -18.5993 4.31668 -0.0759102
ltoes -5.51747 0 0
rfemur -37.5226 -0.44754 16.0502
rtibia 47.5574 -0 0
rfoot -21.2589 -12.3824 -0.0636869
rtoes -24.047 0 0
lowerback -5.3238 -3.57388 -4.55792
upperback -0.0945146 -4.55466 2.11786
thorax 3.40012 -2.36019 4.36483
lowerneck -21.7515 -3.72676 -11.4697
upperneck 22.891 -4.40736 11.233
head 11.5927 -1.5964 5.41626
lclavicle 3.5334e-14 -1.90833e-14 0
lhumerus -11.9707 -19.6576 86.5794
lradius 26.7712 -0 0
lwrist 3.7514 0 0
lhand -16.0076 -24.6149 -0.00631211
lfingers 7.12502 -0 0
lthumb 10.1926 5.11435 -0.00700165
rclavicle 3.5334e-14 -1.90833e-14 0
rhumerus -47.2194 7.46402 -82.7323
rradius 40.5076 -0 0
rwrist -22.8057 0 0
rhand -29.6582 -21.4873 -0.00199027
rfingers 7.12502 -0 0
rthumb -2.98732 -51.446 -0.0019294
292
root 10.0172 16.8162 4.08304 5.22865 1.4487 3.3944
lfemur -2.05771 5.2226 -29.0971
ltibia 19.0829 -0 0
lfoot -18.2818 4.12831 -0.106106
ltoes -5.76637 0 0
rfemur -38.0788 -0.457997 16.0215
rtibia 47.5886 -0 0
rfoot -21.211 -12.2916 -0.0675736
rtoes -24.0349 0 0
lowerback -5.36442 -3.65037 -4.61029
upperback -0.0934849 -4.65244 2.12193
thorax 3.43509 -2.41016 4.38783
lowerneck -21.7231 -3.72673 -11.4803
upperneck 22.8958 -4.411 11.2474
head 11.5897 -1.59821 5.42292
lclavicle 3.5334e-14 -1.90833e-14 0
lhumerus -11.8228 -20.1512 86.7462
lradius 27.0672 -0 0
lwrist 3.91482 0 0
lhand -15.9016 -24.644 -0.00816255
lfingers 7.12502 -0 0
lthumb 10.2947 5.0777 -0.00937311
rclavicle 3.5334e-14 -1.90833e-14 0
rhumerus -47.3048 7.40971 -82.6934
rradius 40.2874 -0 0
rwrist -22.6568 0 0
rhand -29.6315 -21.5425 -0.00283856
rfingers 7.12502 -0 0
rthumb -2.9615 -51.5015 -0.00275151
293
root 10.0068 16.8034 4.24747 5.23018 1.67478 3.42961
lfemur -1.00848 5.28077 -28.9471
ltibia 18.385 -0 0
lfoot -17.9154 3.92134 -0.137761
ltoes -6.03213 0 0
rfemur -38.6101 -0.466291 15.9921
rtibia 47.5973 -0 0
rfoot -21.1042 -12.1656 -0.0637127
rtoes -24.0224 0 0
lowerback -5.41108 -3.72529 -4.66182
upperback -0.0974355 -4.74785 2.12594
thorax 3.46833 -2.4588 4.41004
lowerneck -21.6865 -3.72995 -11.4961
upperneck 22.8918 -4.41964 11.2686
head 11.5831 -1.60209 5.43199
lclavicle 3.5334e-14 -1.90833e-14 0
lhumerus -11.7162 -20.667 86.937
lradius 27.3797 -0 0
lwrist 4.07241 0 0
lhand -15.7704 -24.673 -0.00985497
lfingers 7.12502 -0 0
lthumb 10.4211 5.03942 -0.0117053
rclavicle 3.5334e-14 -1.90833e-14 0
rhumerus -47.401 7.34905 -82.657
rradius 40.0449 -0 0
rwrist -22.4919 0 0
rhand -29.6009 -21.6043 -0.00375088
rfingers 7.12502 -0 0
rthumb -2.93199 -51.5636 -0.00363558
294
root 9.99627 16.7906 4.4119 5.23818 1.90774 3.46151
lfemur 0.0718113 5.34471 -28.7761
ltibia 17.6559 -0 0
lfoot -17.5032 3.69713 -0.170259
ltoes -6.31339 0 0
rfemur -39.1165 -0.472367 15.9623
rtibia 47.5845 -0 0
rfoot -20.942 -12.0065 -0.0528065
rtoes -23.9663 0 0
lowerback -5.4634 -3.79856 -4.71239
upperback -0.106109 -4.84078 2.12991
thorax 3.49986 -2.50608 4.43146
lowerneck -21.6423 -3.7363 -11.5166
upperneck 22.8795 -4.43304 11.2963
head 11.573 -1.60795 5.44332
lclavicle 3.5334e-14 -1.90833e-14 0
lhumerus -11.6502 -21.2031 87.1511
lradius 27.7071 -0 0
lwrist 4.22443 0 0
lhand -15.6153 -24.7018 -0.0113736
lfingers 7.12502 -0 0
lthumb 10.5705 4.99969 -0.0139638
rclavicle 3.5334e-14 -1.90833e-14 0
rhumerus -47.5069 7.28263 -82.6233
rradius 39.7817 -0 0
rwrist -22.312 0 0
rhand -29.5668 -21.6723 -0.00470947
rfingers 7.12502 -0 0
rthumb -2.89905 -51.6319 -0.00456435
295
root 9.98578 16.7777 4.57634 5.25228 2.14691 3.49017
lfemur 1.17938 5.41309 -28.5849
ltibia 16.8991 -0 0
lfoot -17.048 3.45702 -0.202989
ltoes -6.6088 0 0
rfemur -39.5984 -0.476164 15.9322
rtibia 47.5508 -0 0
rfoot -20.7274 -11.8158 -0.0356299
rtoes -23.9113 0 0
lowerback -5.52101 -3.87011 -4.7619
upperback -0.119249 -4.93117 2.13385
thorax 3.52971 -2.55196 4.45205
lowerneck -21.5908 -3.74563 -11.5417
upperneck 22.8594 -4.451 11.3299
head 11.5596 -1.6157 5.45678
lclavicle 3.5334e-14 -1.90833e-14 0
lhumerus -11.6242 -21.7575 87.3879
lradius 28.0484 -0 0
lwrist 4.37112 0 0
lhand -15.4379 -24.7303 -0.0127049
lfingers 7.12502 -0 0
lthumb 10.7414 4.95872 -0.0161153
rclavicle 3.5334e-14 -1.90833e-14 0
rhumerus -47.6218 7.21107 -82.592
rradius 39.4995 -0 0
rwrist -22.1183 0 0
rhand -29.5294 -21.746 -0.00569644
rfingers 7.12502 -0 0
rthumb -2.86294 -51.706 -0.0055205
296
root 9.97529 16.7649 4.74077 5.27213 2.39164 3.51564
lfemur 2.31044 5.48464 -28.3744
ltibia 16.1181 -0 0
lfoot -16.5531 3.2024 -0.235344
ltoes -6.917 0 0
rfemur -40.056 -0.477617 15.9021
rtibia 47.4974 -0 0
rfoot -20.4637 -11.5953 -0.013013
rtoes -23.8434 0 0
lowerback -5.58351 -3.93986 -4.81021
upperback -0.136599 -5.01891 2.1378
thorax 3.55791 -2.5964 4.47181
lowerneck -21.5326 -3.75778 -11.5711
upperneck 22.832 -4.47328 11.3692
head 11.5432 -1.62526 5.47222
lclavicle 3.5334e-14 -1.90833e-14 0
lhumerus -11.6374 -22.3281 87.6468
lradius 28.4021 -0 0
lwrist 4.51271 0 0
lhand -15.2397 -24.7584 -0.0138376
lfingers 7.12502 -0 0
lthumb 10.9323 4.91667 -0.0181284
rclavicle 3.5334e-14 -1.90833e-14 0
rhumerus -47.7446 7.13497 -82.5632
rradius 39.1998 -0 0
rwrist -21.9118 0 0
rhand -29.489 -21.8251 -0.00669407
rfingers 7.12502 -0 0
rthumb -2.82391 -51.7856 -0.00648681
297
root 9.9648 16.7521 4.90521 5.29739 2.64126 3.53798
lfemur 3.46119 5.55811 -28.1456
ltibia 15.3164 -0 0
lfoot -16.0214 2.93465 -0.266741
ltoes -7.23661 0 0
rfemur -40.4893 -0.476657 15.8724
rtibia 47.4229 -0 0
rfoot -20.1542 -11.3467 0.0141756
rtoes -23.7634 0 0
lowerback -5.65053 -4.00774 -4.85721
upperback -0.1579 -5.10394 2.14175
thorax 3.58448 -2.63937 4.49071
lowerneck -21.468 -3.77263 -11.6044
upperneck 22.7976 -4.49967 11.4138
head 11.524 -1.63654 5.48952
lclavicle 3.5334e-14 -1.90833e-14 0
lhumerus -11.689 -22.9127 87.9271
lradius 28.7671 -0 0
lwrist 4.64947 0 0
lhand -15.0223 -24.7861 -0.0147629
lfingers 7.12502 -0 0
lthumb 11.1418 4.87373 -0.0199735
rclavicle 3.5334e-14 -1.90833e-14 0
rhumerus -47.8744 7.05494 -82.5367
rradius 38.8842 -0 0
rwrist -21.6937 0 0
rhand -29.4458 -21.9092 -0.00768503
rfingers 7.12502 -0 0
rthumb -2.78224 -51.8702 -0.00744648
298
root 9.95431 16.7393 5.06964 5.3277 2.89511 3.55724
lfemur 4.62781 5.63232 -27.8996
ltibia 14.4977 -0 0
lfoot -15.4561 2.65514 -0.296622
ltoes -7.5663 0 0
rfemur -40.8986 -0.473211 15.8432
rtibia 47.3345 -0 0
rfoot -19.802 -11.0719 0.0450436
rtoes -23.672 0 0
lowerback -5.7217 -4.07366 -4.9028
upperback -0.182896 -5.18616 2.14572
thorax 3.60946 -2.68082 4.50875
lowerneck -21.3976 -3.79001 -11.6416
upperneck 22.7568 -4.52995 11.4634
head 11.5021 -1.64945 5.50852
lclavicle 3.5334e-14 -1.90833e-14 0
lhumerus -11.7784 -23.5094 88.2283
lradius 29.142 -0 0
lwrist 4.78162 0 0
lhand -14.787 -24.8132 -0.0154744
lfingers 7.12502 -0 0
lthumb 11.3684 4.83009 -0.0216238
rclavicle 3.5334e-14 -1.90833e-14 0
rhumerus -48.0102 6.97157 -82.5125
rradius 38.5543 -0 0
rwrist -21.4649 0 0
rhand -29.4002 -21.998 -0.00865259
rfingers 7.12502 -0 0
rthumb -2.73818 -51.9594 -0.00838329
299
root 9.94382 16.7264 5.23408 5.3627 3.15253 3.57347
lfemur 5.80649 5.70614 -27.6372
ltibia 13.6655 -0 0
lfoot -14.86 2.36529 -0.324466
ltoes -7.90469 0 0
rfemur -41.2842 -0.467204 15.8148
rtibia 47.2268 -0 0
rfoot -19.4104 -10.7724 0.0786898
rtoes -23.57 0 0
lowerback -5.79663 -4.13755 -4.94684
upperback -0.21133 -5.26549 2.14973
thorax 3.63286 -2.72072 4.52591
lowerneck -21.3217 -3.8098 -11.6821
upperneck 22.7099 -4.56388 11.5176
head 11.4778 -1.66389 5.5291
lclavicle 3.5334e-14 -1.90833e-14 0
lhumerus -11.9047 -24.116 88.5498
lradius 29.5256 -0 0
lwrist 4.90941 0 0
lhand -14.5355 -24.8397 -0.0159685
lfingers 7.12502 -0 0
lthumb 11.6107 4.78594 -0.0230554
rclavicle 3.5334e-14 -1.90833e-14 0
rhumerus -48.1512 6.88547 -82.4905
rradius 38.2117 -0 0
rwrist -21.2266 0 0
rhand -29.3524 -22.0909 -0.00958084
rfingers 7.12502 -0 0
rthumb -2.69198 -52.0529 -0.00928181
300
root 9.93333 16.7136 5.39851 5.40203 3.41287 3.58672
lfemur 6.99338 5.7785 -27.3598
ltibia 12.8232 -0 0
lfoot -14.2364 2.06651 -0.349792
ltoes -8.25043 0 0
rfemur -41.6462 -0.458557 15.7874
rtibia 47.1027 -0 0
rfoot -18.9826 -10.4501 0.114218
rtoes -23.458 0 0
lowerback -5.87494 -4.19932 -4.98924
upperback -0.242943 -5.34185 2.15379
thorax 3.65471 -2.75902 4.54217
lowerneck -21.241 -3.83184 -11.7259
upperneck 22.6574 -4.60124 11.576
head 11.4512 -1.67978 5.55111
lclavicle 3.5334e-14 -1.90833e-14 0
lhumerus -12.0673 -24.7303 88.891
lradius 29.9166 -0 0
lwrist 5.03309 0 0
lhand -14.2693 -24.8655 -0.016244
lfingers 7.12502 -0 0
lthumb 11.8672 4.74146 -0.0242479
rclavicle 3.5334e-14 -1.90833e-14 0
rhumerus -48.2963 6.79724 -82.4707
rradius 37.858 -0 0
rwrist -20.9799 0 0
rhand -29.3026 -22.1878 -0.0104549
rfingers 7.12502 -0 0
rthumb -2.64392 -52.1503 -0.0101276
301
root 9.92284 16.7008 5.56294 5.44535 3.67546 3.59703
lfemur 8.18464 5.84843 -27.0683
ltibia 11.9745 -0 0
lfoot -13.5883 1.76022 -0.37217
ltoes -8.60216 0 0
rfemur -41.9848 -0.44719 15.7614
rtibia 46.9633 -0 0
rfoot -18.5218 -10.1066 0.150747
rtoes -23.3368 0 0
lowerback -5.95626 -4.2589 -5.02989
upperback -0.277479 -5.41514 2.15791
thorax 3.67505 -2.79569 4.55751
lowerneck -21.1557 -3.85599 -11.7726
upperneck 22.5997 -4.64182 11.6384
head 11.4226 -1.69703 5.57441
lclavicle 3.5334e-14 -1.90833e-14 0
lhumerus -12.2653 -25.3502 89.2513
lradius 30.3137 -0 0
lwrist 5.1529 0 0
lhand -13.9898 -24.8905 -0.0163024
lfingers 7.12502 -0 0
lthumb 12.1364 4.69684 -0.0251842
rclavicle 3.5334e-14 -1.90833e-14 0
rhumerus -48.4446 6.70748 -82.4529
rradius 37.4947 -0 0
rwrist -20.7258 0 0
rhand -29.2512 -22.288 -0.011261
rfingers 7.12502 -0 0
rthumb -2.59425 -52.2511 -0.0109073
